<mxfile host="app.diagrams.net" modified="2021-09-17T15:59:08.801Z" agent="5.0 (Windows)" etag="-cpLbHWr8XAbL-Nbj5c9" version="15.2.9" type="github">
  <diagram id="kDup70aPqAmlONpFN8vK" name="Page-1">
    <mxGraphModel dx="1422" dy="820" grid="1" gridSize="10" guides="1" tooltips="1" connect="1" arrows="1" fold="1" page="1" pageScale="1" pageWidth="850" pageHeight="1100" math="0" shadow="0">
      <root>
        <mxCell id="0" />
        <mxCell id="1" parent="0" />
        <mxCell id="Bzb-3gxFvcCEt1NOHRP6-20" value="&lt;p style=&quot;margin: 0px ; margin-top: 4px ; text-align: center&quot;&gt;&lt;b&gt;MelodyKeyUserInput&lt;/b&gt;&lt;/p&gt;&lt;hr size=&quot;1&quot;&gt;&lt;p style=&quot;margin: 0px ; margin-left: 4px&quot;&gt;&lt;br&gt;&lt;/p&gt;&lt;hr size=&quot;1&quot;&gt;&lt;p style=&quot;margin: 0px ; margin-left: 4px&quot;&gt;&lt;br&gt;&lt;/p&gt;" style="verticalAlign=top;align=left;overflow=fill;fontSize=12;fontFamily=Helvetica;html=1;" vertex="1" parent="1">
          <mxGeometry x="860" y="1400" width="160" height="80" as="geometry" />
        </mxCell>
        <mxCell id="Bzb-3gxFvcCEt1NOHRP6-19" value="&lt;p style=&quot;margin: 0px ; margin-top: 4px ; text-align: center&quot;&gt;&lt;b&gt;DroneKeyUserInput&lt;/b&gt;&lt;br&gt;&lt;/p&gt;&lt;hr size=&quot;1&quot;&gt;&lt;p style=&quot;margin: 0px ; margin-left: 4px&quot;&gt;&lt;br&gt;&lt;/p&gt;&lt;hr size=&quot;1&quot;&gt;&lt;p style=&quot;margin: 0px ; margin-left: 4px&quot;&gt;&lt;br&gt;&lt;/p&gt;" style="verticalAlign=top;align=left;overflow=fill;fontSize=12;fontFamily=Helvetica;html=1;" vertex="1" parent="1">
          <mxGeometry x="750" y="1530" width="160" height="80" as="geometry" />
        </mxCell>
        <mxCell id="Bzb-3gxFvcCEt1NOHRP6-18" value="&lt;p style=&quot;margin: 0px ; margin-top: 4px ; text-align: center&quot;&gt;&lt;b&gt;StreamKeyUserInput&lt;/b&gt;&lt;/p&gt;&lt;hr size=&quot;1&quot;&gt;&lt;p style=&quot;margin: 0px ; margin-left: 4px&quot;&gt;&lt;br&gt;&lt;/p&gt;&lt;hr size=&quot;1&quot;&gt;&lt;p style=&quot;margin: 0px ; margin-left: 4px&quot;&gt;&lt;br&gt;&lt;/p&gt;" style="verticalAlign=top;align=left;overflow=fill;fontSize=12;fontFamily=Helvetica;html=1;" vertex="1" parent="1">
          <mxGeometry x="650" y="1400" width="160" height="80" as="geometry" />
        </mxCell>
        <mxCell id="Bzb-3gxFvcCEt1NOHRP6-17" value="&lt;p style=&quot;margin: 0px ; margin-top: 4px ; text-align: center&quot;&gt;&lt;b&gt;FourInFourUserInput&lt;/b&gt;&lt;/p&gt;&lt;hr size=&quot;1&quot;&gt;&lt;br&gt;&lt;hr size=&quot;1&quot;&gt;&lt;p style=&quot;margin: 0px ; margin-left: 4px&quot;&gt;&lt;br&gt;&lt;/p&gt;" style="verticalAlign=top;align=left;overflow=fill;fontSize=12;fontFamily=Helvetica;html=1;" vertex="1" parent="1">
          <mxGeometry x="450" y="1550" width="160" height="100" as="geometry" />
        </mxCell>
        <mxCell id="IexDdL5BKOaNLtybtklX-1" value="&lt;p style=&quot;margin: 0px ; margin-top: 4px ; text-align: center&quot;&gt;&lt;b&gt;MidiBeatValuesUpdater&lt;/b&gt;&lt;br&gt;&lt;/p&gt;&lt;hr size=&quot;1&quot;&gt;&lt;hr size=&quot;1&quot;&gt;&lt;p style=&quot;margin: 0px ; margin-left: 4px&quot;&gt;+ UpdateBeatValues(): void&lt;br&gt;&lt;/p&gt;" style="verticalAlign=top;align=left;overflow=fill;fontSize=12;fontFamily=Helvetica;html=1;" parent="1" vertex="1">
          <mxGeometry x="240" y="380" width="160" height="70" as="geometry" />
        </mxCell>
        <mxCell id="IexDdL5BKOaNLtybtklX-3" value="&lt;p style=&quot;margin: 0px ; margin-top: 4px ; text-align: center&quot;&gt;&lt;i&gt;&amp;lt;&amp;lt;Interface&amp;gt;&amp;gt;&lt;/i&gt;&lt;br&gt;&lt;b&gt;IBeatValuesUpdater&lt;/b&gt;&lt;/p&gt;&lt;hr size=&quot;1&quot;&gt;&lt;hr size=&quot;1&quot;&gt;&lt;p style=&quot;margin: 0px ; margin-left: 4px&quot;&gt;+ UpdateBeatValues(): void&lt;/p&gt;" style="verticalAlign=top;align=left;overflow=fill;fontSize=12;fontFamily=Helvetica;html=1;" parent="1" vertex="1">
          <mxGeometry x="50" y="150" width="170" height="90" as="geometry" />
        </mxCell>
        <mxCell id="IexDdL5BKOaNLtybtklX-4" value="&lt;p style=&quot;margin: 0px ; margin-top: 4px ; text-align: center&quot;&gt;&lt;b&gt;FakeBeatValuesUpdater&lt;/b&gt;&lt;br&gt;&lt;/p&gt;&lt;hr size=&quot;1&quot;&gt;&lt;hr size=&quot;1&quot;&gt;&lt;p style=&quot;margin: 0px ; margin-left: 4px&quot;&gt;+ UpdateBeatValues(): void&lt;br&gt;&lt;/p&gt;" style="verticalAlign=top;align=left;overflow=fill;fontSize=12;fontFamily=Helvetica;html=1;" parent="1" vertex="1">
          <mxGeometry x="50" y="380" width="160" height="70" as="geometry" />
        </mxCell>
        <mxCell id="IexDdL5BKOaNLtybtklX-6" value="" style="endArrow=block;dashed=1;endFill=0;endSize=12;html=1;" parent="1" source="IexDdL5BKOaNLtybtklX-4" target="IexDdL5BKOaNLtybtklX-3" edge="1">
          <mxGeometry width="160" relative="1" as="geometry">
            <mxPoint x="100" y="420" as="sourcePoint" />
            <mxPoint x="390" y="320" as="targetPoint" />
          </mxGeometry>
        </mxCell>
        <mxCell id="IexDdL5BKOaNLtybtklX-7" value="" style="endArrow=block;dashed=1;endFill=0;endSize=12;html=1;" parent="1" source="IexDdL5BKOaNLtybtklX-1" target="IexDdL5BKOaNLtybtklX-3" edge="1">
          <mxGeometry width="160" relative="1" as="geometry">
            <mxPoint x="120" y="460" as="sourcePoint" />
            <mxPoint x="162.5" y="370" as="targetPoint" />
          </mxGeometry>
        </mxCell>
        <mxCell id="IexDdL5BKOaNLtybtklX-9" value="&lt;p style=&quot;margin: 0px ; margin-top: 4px ; text-align: center&quot;&gt;&lt;b&gt;MusicValuesUpdater&lt;/b&gt;&lt;br&gt;&lt;/p&gt;&lt;hr size=&quot;1&quot;&gt;&lt;hr size=&quot;1&quot;&gt;&lt;p style=&quot;margin: 0px ; margin-left: 4px&quot;&gt;+ UpdateBeatValues(): void&lt;/p&gt;&lt;p style=&quot;margin: 0px ; margin-left: 4px&quot;&gt;+ UpdateVolumeValues(): void&lt;/p&gt;&lt;p style=&quot;margin: 0px ; margin-left: 4px&quot;&gt;+ RegisterUserInputs(): void&lt;br&gt;&lt;/p&gt;" style="verticalAlign=top;align=left;overflow=fill;fontSize=12;fontFamily=Helvetica;html=1;strokeColor=default;" parent="1" vertex="1">
          <mxGeometry x="350" y="150" width="220" height="110" as="geometry" />
        </mxCell>
        <mxCell id="IexDdL5BKOaNLtybtklX-12" value="" style="endArrow=diamondThin;endFill=1;endSize=24;html=1;" parent="1" source="IexDdL5BKOaNLtybtklX-1" target="IexDdL5BKOaNLtybtklX-9" edge="1">
          <mxGeometry width="160" relative="1" as="geometry">
            <mxPoint x="540" y="350" as="sourcePoint" />
            <mxPoint x="700" y="350" as="targetPoint" />
          </mxGeometry>
        </mxCell>
        <mxCell id="IexDdL5BKOaNLtybtklX-15" value="&lt;p style=&quot;margin: 0px ; margin-top: 4px ; text-align: center&quot;&gt;&lt;b&gt;MusicValuesFacade&lt;/b&gt;&lt;/p&gt;&lt;hr size=&quot;1&quot;&gt;&lt;p style=&quot;margin: 0px ; margin-left: 4px&quot;&gt;+ FourInFourEvent: delegate void&lt;br&gt;&lt;/p&gt;&lt;p style=&quot;margin: 0px ; margin-left: 4px&quot;&gt;+ EmitFourInFourEvent: event FourInFourEvent&lt;br&gt;&lt;/p&gt;&lt;p style=&quot;margin: 0px ; margin-left: 4px&quot;&gt;+ fourInFourValue: float&lt;/p&gt;&lt;hr size=&quot;1&quot;&gt;&lt;p style=&quot;margin: 0px ; margin-left: 4px&quot;&gt;+ SetFourInFourValue(): void&lt;/p&gt;&lt;p style=&quot;margin: 0px ; margin-left: 4px&quot;&gt;+ GetFourInFourValue(): float&lt;/p&gt;&lt;p style=&quot;margin: 0px ; margin-left: 4px&quot;&gt;...&lt;/p&gt;&lt;p style=&quot;margin: 0px ; margin-left: 4px&quot;&gt;&lt;br&gt;&lt;/p&gt;" style="verticalAlign=top;align=left;overflow=fill;fontSize=12;fontFamily=Helvetica;html=1;" parent="1" vertex="1">
          <mxGeometry x="590" y="310" width="270" height="150" as="geometry" />
        </mxCell>
        <mxCell id="_s8e9NvMkZ89bHvfG3n6-1" value="&lt;p style=&quot;margin: 0px ; margin-top: 4px ; text-align: center&quot;&gt;&lt;i&gt;&lt;b&gt;FadedUserInput&lt;/b&gt;&lt;/i&gt;&lt;/p&gt;&lt;hr size=&quot;1&quot;&gt;&lt;p style=&quot;margin: 0px ; margin-left: 4px&quot;&gt;+ ActivateEvent: delegate void&lt;/p&gt;&lt;p style=&quot;margin: 0px ; margin-left: 4px&quot;&gt;+ EmitActivateEvent: event ActivateEvent&lt;/p&gt;&lt;p style=&quot;margin: 0px ; margin-left: 4px&quot;&gt;+ DeactivateEvent: delegate void&lt;br&gt;&lt;/p&gt;&lt;p style=&quot;margin: 0px ; margin-left: 4px&quot;&gt;+ EmitDeactivateEvent: event DeactivateEvent&lt;/p&gt;&lt;p style=&quot;margin: 0px ; margin-left: 4px&quot;&gt;+ isActive: boolean&lt;/p&gt;&lt;p style=&quot;margin: 0px ; margin-left: 4px&quot;&gt;+ currentInputValue: float&lt;br&gt;&lt;/p&gt;&lt;hr size=&quot;1&quot;&gt;&lt;p style=&quot;margin: 0px ; margin-left: 4px&quot;&gt;+ SetNewStateIfNecessary(): void&lt;br&gt;&lt;/p&gt;" style="verticalAlign=top;align=left;overflow=fill;fontSize=12;fontFamily=Helvetica;html=1;" parent="1" vertex="1">
          <mxGeometry x="990" y="1165" width="290" height="160" as="geometry" />
        </mxCell>
        <mxCell id="_s8e9NvMkZ89bHvfG3n6-2" value="&lt;p style=&quot;margin: 0px ; margin-top: 4px ; text-align: center&quot;&gt;&lt;i&gt;&amp;lt;&amp;lt;Interface&amp;gt;&amp;gt;&lt;/i&gt;&lt;/p&gt;&lt;p style=&quot;margin: 0px ; margin-top: 4px ; text-align: center&quot;&gt;&lt;b&gt;IUserInputsUpdater&lt;/b&gt;&lt;/p&gt;&lt;hr size=&quot;1&quot;&gt;&lt;p style=&quot;margin: 0px ; margin-left: 4px&quot;&gt;- &lt;br&gt;&lt;/p&gt;&lt;hr size=&quot;1&quot;&gt;&lt;p style=&quot;margin: 0px ; margin-left: 4px&quot;&gt;+ UpdateFourInFour: void&lt;/p&gt;&lt;p style=&quot;margin: 0px ; margin-left: 4px&quot;&gt;+ UpdateTwoInFour: void&lt;/p&gt;&lt;p style=&quot;margin: 0px ; margin-left: 4px&quot;&gt;+ UpdateEightInFour: void&lt;/p&gt;&lt;p style=&quot;margin: 0px ; margin-left: 4px&quot;&gt;+ UpdateSixteenInFour: void&lt;br&gt;&lt;/p&gt;&lt;p style=&quot;margin: 0px ; margin-left: 4px&quot;&gt;&lt;br&gt;&lt;/p&gt;&lt;p style=&quot;margin: 0px ; margin-left: 4px&quot;&gt;+ UpdateStreamKeys: void&lt;/p&gt;&lt;p style=&quot;margin: 0px ; margin-left: 4px&quot;&gt;+ UpdateMelodyKeys: void&lt;/p&gt;&lt;p style=&quot;margin: 0px ; margin-left: 4px&quot;&gt;+ UpdateMoodKeys: void&lt;/p&gt;&lt;p style=&quot;margin: 0px ; margin-left: 4px&quot;&gt;&lt;br&gt;&lt;/p&gt;&lt;p style=&quot;margin: 0px ; margin-left: 4px&quot;&gt;+ UpdateGlobalIntensity: void&lt;/p&gt;&lt;p style=&quot;margin: 0px ; margin-left: 4px&quot;&gt;&lt;br&gt;&lt;/p&gt;&lt;p style=&quot;margin: 0px ; margin-left: 4px&quot;&gt;&lt;br&gt;&lt;/p&gt;" style="verticalAlign=top;align=left;overflow=fill;fontSize=12;fontFamily=Helvetica;html=1;" parent="1" vertex="1">
          <mxGeometry x="150" y="565" width="180" height="365" as="geometry" />
        </mxCell>
        <mxCell id="p0SsCodFUb69BNhrjL_O-1" value="&lt;p style=&quot;margin: 0px ; margin-top: 4px ; text-align: center&quot;&gt;&lt;b&gt;MelodyKeyUserInput&lt;/b&gt;&lt;/p&gt;&lt;hr size=&quot;1&quot;&gt;&lt;p style=&quot;margin: 0px ; margin-left: 4px&quot;&gt;&lt;br&gt;&lt;/p&gt;&lt;hr size=&quot;1&quot;&gt;&lt;p style=&quot;margin: 0px ; margin-left: 4px&quot;&gt;&lt;br&gt;&lt;/p&gt;" style="verticalAlign=top;align=left;overflow=fill;fontSize=12;fontFamily=Helvetica;html=1;" parent="1" vertex="1">
          <mxGeometry x="850" y="1390" width="160" height="80" as="geometry" />
        </mxCell>
        <mxCell id="p0SsCodFUb69BNhrjL_O-2" value="&lt;p style=&quot;margin: 0px ; margin-top: 4px ; text-align: center&quot;&gt;&lt;i&gt;&lt;b&gt;ToggledUserInput&lt;/b&gt;&lt;/i&gt;&lt;/p&gt;&lt;hr size=&quot;1&quot;&gt;&lt;p style=&quot;margin: 0px ; margin-left: 4px&quot;&gt;+ KeyUpEvent: delegate void&lt;/p&gt;&lt;p style=&quot;margin: 0px ; margin-left: 4px&quot;&gt;+ EmitKeyUpEvent: event KeyUpEvent&lt;/p&gt;&lt;p style=&quot;margin: 0px ; margin-left: 4px&quot;&gt;+ KeyDownEvent: delegate void&lt;br&gt;&lt;/p&gt;&lt;p style=&quot;margin: 0px ; margin-left: 4px&quot;&gt;+ EmitKeyDownEvent: event KeyDownEvent&lt;/p&gt;&lt;p style=&quot;margin: 0px ; margin-left: 4px&quot;&gt;+ isPressed: boolean&lt;br&gt;&lt;/p&gt;&lt;hr size=&quot;1&quot;&gt;&lt;p style=&quot;margin: 0px ; margin-left: 4px&quot;&gt;+ SetNewStateIfNecessary(): void&lt;br&gt;&lt;/p&gt;" style="verticalAlign=top;align=left;overflow=fill;fontSize=12;fontFamily=Helvetica;html=1;" parent="1" vertex="1">
          <mxGeometry x="690" y="1165" width="260" height="160" as="geometry" />
        </mxCell>
        <mxCell id="p0SsCodFUb69BNhrjL_O-4" value="Extends" style="endArrow=block;endSize=16;endFill=0;entryX=0.638;entryY=1.013;entryDx=0;entryDy=0;exitX=0.5;exitY=0;exitDx=0;exitDy=0;strokeColor=#000000;shadow=0;comic=0;textOpacity=0;fontColor=none;labelBackgroundColor=none;noLabel=1;entryPerimeter=0;" parent="1" source="p0SsCodFUb69BNhrjL_O-1" target="p0SsCodFUb69BNhrjL_O-2" edge="1">
          <mxGeometry x="-0.0476" width="160" relative="1" as="geometry">
            <mxPoint x="460" y="1530" as="sourcePoint" />
            <mxPoint x="620" y="1530" as="targetPoint" />
            <mxPoint as="offset" />
          </mxGeometry>
        </mxCell>
        <mxCell id="p0SsCodFUb69BNhrjL_O-5" value="&lt;p style=&quot;margin: 0px ; margin-top: 4px ; text-align: center&quot;&gt;&lt;b&gt;StreamKeyUserInput&lt;/b&gt;&lt;/p&gt;&lt;hr size=&quot;1&quot;&gt;&lt;p style=&quot;margin: 0px ; margin-left: 4px&quot;&gt;&lt;br&gt;&lt;/p&gt;&lt;hr size=&quot;1&quot;&gt;&lt;p style=&quot;margin: 0px ; margin-left: 4px&quot;&gt;&lt;br&gt;&lt;/p&gt;" style="verticalAlign=top;align=left;overflow=fill;fontSize=12;fontFamily=Helvetica;html=1;" parent="1" vertex="1">
          <mxGeometry x="640" y="1390" width="160" height="80" as="geometry" />
        </mxCell>
        <mxCell id="p0SsCodFUb69BNhrjL_O-6" value="Extends" style="endArrow=block;endSize=16;endFill=0;entryX=0.35;entryY=1.006;entryDx=0;entryDy=0;exitX=0.5;exitY=0;exitDx=0;exitDy=0;strokeColor=#000000;shadow=0;comic=0;textOpacity=0;fontColor=none;labelBackgroundColor=none;noLabel=1;entryPerimeter=0;" parent="1" source="p0SsCodFUb69BNhrjL_O-5" target="p0SsCodFUb69BNhrjL_O-2" edge="1">
          <mxGeometry x="-0.0476" width="160" relative="1" as="geometry">
            <mxPoint x="680" y="1400" as="sourcePoint" />
            <mxPoint x="680" y="1305" as="targetPoint" />
            <mxPoint as="offset" />
          </mxGeometry>
        </mxCell>
        <mxCell id="gkqPeHBAmK1bLLE0qPdu-3" value="&lt;p style=&quot;margin: 0px ; margin-top: 4px ; text-align: center&quot;&gt;&lt;b&gt;KeyboardUserInputsUpdater&lt;/b&gt;&lt;br&gt;&lt;/p&gt;&lt;hr size=&quot;1&quot;&gt;&lt;hr size=&quot;1&quot;&gt;&lt;p style=&quot;margin: 0px ; margin-left: 4px&quot;&gt;+ UpdateUserInputs(): void&lt;/p&gt;&lt;p style=&quot;margin: 0px ; margin-left: 4px&quot;&gt;+ RegisterObserver(): void&lt;/p&gt;&lt;p style=&quot;margin: 0px ; margin-left: 4px&quot;&gt;&lt;br&gt;&lt;/p&gt;" style="verticalAlign=top;align=left;overflow=fill;fontSize=12;fontFamily=Helvetica;html=1;" parent="1" vertex="1">
          <mxGeometry x="32.5" y="985" width="170" height="80" as="geometry" />
        </mxCell>
        <mxCell id="gkqPeHBAmK1bLLE0qPdu-4" value="" style="endArrow=block;dashed=1;endFill=0;endSize=12;html=1;entryX=0.181;entryY=1;entryDx=0;entryDy=0;exitX=0.5;exitY=0;exitDx=0;exitDy=0;entryPerimeter=0;" parent="1" source="gkqPeHBAmK1bLLE0qPdu-3" target="_s8e9NvMkZ89bHvfG3n6-2" edge="1">
          <mxGeometry width="160" relative="1" as="geometry">
            <mxPoint x="110" y="780" as="sourcePoint" />
            <mxPoint x="172.5" y="730" as="targetPoint" />
          </mxGeometry>
        </mxCell>
        <mxCell id="gkqPeHBAmK1bLLE0qPdu-5" value="&lt;p style=&quot;margin: 0px ; margin-top: 4px ; text-align: center&quot;&gt;&lt;b&gt;MidiDeviceUserInputsUpdater&lt;/b&gt;&lt;br&gt;&lt;/p&gt;&lt;hr size=&quot;1&quot;&gt;&lt;hr size=&quot;1&quot;&gt;&lt;p style=&quot;margin: 0px ; margin-left: 4px&quot;&gt;+ UpdateUserInputs(): void&lt;/p&gt;&lt;p style=&quot;margin: 0px ; margin-left: 4px&quot;&gt;+ RegisterObserver(): void&lt;/p&gt;" style="verticalAlign=top;align=left;overflow=fill;fontSize=12;fontFamily=Helvetica;html=1;" parent="1" vertex="1">
          <mxGeometry x="247.5" y="985" width="180" height="80" as="geometry" />
        </mxCell>
        <mxCell id="gkqPeHBAmK1bLLE0qPdu-7" value="" style="endArrow=block;dashed=1;endFill=0;endSize=12;html=1;entryX=0.75;entryY=1;entryDx=0;entryDy=0;exitX=0.3;exitY=-0.014;exitDx=0;exitDy=0;exitPerimeter=0;" parent="1" source="gkqPeHBAmK1bLLE0qPdu-5" target="_s8e9NvMkZ89bHvfG3n6-2" edge="1">
          <mxGeometry width="160" relative="1" as="geometry">
            <mxPoint x="135" y="820" as="sourcePoint" />
            <mxPoint x="182.5" y="740" as="targetPoint" />
          </mxGeometry>
        </mxCell>
        <mxCell id="gkqPeHBAmK1bLLE0qPdu-8" value="&lt;p style=&quot;margin: 0px ; margin-top: 4px ; text-align: center&quot;&gt;&lt;i&gt;&lt;b&gt;TriggeredUserInput&lt;/b&gt;&lt;/i&gt;&lt;/p&gt;&lt;hr size=&quot;1&quot;&gt;&lt;p style=&quot;margin: 0px ; margin-left: 4px&quot;&gt;+ TriggerEvent: delegate void&lt;/p&gt;&lt;p style=&quot;margin: 0px ; margin-left: 4px&quot;&gt;+ EmitTriggerEvent: event EmitTriggerEvent&lt;/p&gt;&lt;hr size=&quot;1&quot;&gt;&lt;p style=&quot;margin: 0px ; margin-left: 4px&quot;&gt;+ SetNewStateIfNecessary(): void&lt;br&gt;&lt;/p&gt;" style="verticalAlign=top;align=left;overflow=fill;fontSize=12;fontFamily=Helvetica;html=1;" parent="1" vertex="1">
          <mxGeometry x="1310" y="1180" width="290" height="100" as="geometry" />
        </mxCell>
        <mxCell id="gkqPeHBAmK1bLLE0qPdu-9" value="&lt;p style=&quot;margin: 0px ; margin-top: 4px ; text-align: center&quot;&gt;&lt;b&gt;ExplosionKeyUserInput&lt;/b&gt;&lt;br&gt;&lt;/p&gt;&lt;hr size=&quot;1&quot;&gt;&lt;p style=&quot;margin: 0px ; margin-left: 4px&quot;&gt;&lt;br&gt;&lt;/p&gt;&lt;hr size=&quot;1&quot;&gt;&lt;p style=&quot;margin: 0px ; margin-left: 4px&quot;&gt;&lt;br&gt;&lt;/p&gt;" style="verticalAlign=top;align=left;overflow=fill;fontSize=12;fontFamily=Helvetica;html=1;" parent="1" vertex="1">
          <mxGeometry x="1375" y="1430" width="160" height="80" as="geometry" />
        </mxCell>
        <mxCell id="gkqPeHBAmK1bLLE0qPdu-10" value="Extends" style="endArrow=block;endSize=16;endFill=0;exitX=0.5;exitY=0;exitDx=0;exitDy=0;strokeColor=#000000;shadow=0;comic=0;textOpacity=0;fontColor=none;labelBackgroundColor=none;noLabel=1;" parent="1" source="gkqPeHBAmK1bLLE0qPdu-9" edge="1">
          <mxGeometry x="-0.0476" width="160" relative="1" as="geometry">
            <mxPoint x="735" y="1440" as="sourcePoint" />
            <mxPoint x="1460" y="1282" as="targetPoint" />
            <mxPoint as="offset" />
          </mxGeometry>
        </mxCell>
        <mxCell id="gkqPeHBAmK1bLLE0qPdu-11" value="&lt;p style=&quot;margin: 0px ; margin-top: 4px ; text-align: center&quot;&gt;&lt;b&gt;FourInFourUserInput&lt;/b&gt;&lt;/p&gt;&lt;hr size=&quot;1&quot;&gt;&lt;br&gt;&lt;hr size=&quot;1&quot;&gt;&lt;p style=&quot;margin: 0px ; margin-left: 4px&quot;&gt;&lt;br&gt;&lt;/p&gt;" style="verticalAlign=top;align=left;overflow=fill;fontSize=12;fontFamily=Helvetica;html=1;" parent="1" vertex="1">
          <mxGeometry x="440" y="1540" width="160" height="100" as="geometry" />
        </mxCell>
        <mxCell id="gkqPeHBAmK1bLLE0qPdu-12" value="&lt;p style=&quot;margin: 0px ; margin-top: 4px ; text-align: center&quot;&gt;&lt;b&gt;GlobalIntensityUserInput&lt;/b&gt;&lt;/p&gt;&lt;hr size=&quot;1&quot;&gt;&lt;p style=&quot;margin: 0px ; margin-left: 4px&quot;&gt;&lt;br&gt;&lt;/p&gt;&lt;hr size=&quot;1&quot;&gt;&lt;p style=&quot;margin: 0px ; margin-left: 4px&quot;&gt;&lt;br&gt;&lt;/p&gt;" style="verticalAlign=top;align=left;overflow=fill;fontSize=12;fontFamily=Helvetica;html=1;" parent="1" vertex="1">
          <mxGeometry x="1090" y="1430" width="160" height="80" as="geometry" />
        </mxCell>
        <mxCell id="gkqPeHBAmK1bLLE0qPdu-13" value="Extends" style="endArrow=block;endSize=16;endFill=0;exitX=0.5;exitY=0;exitDx=0;exitDy=0;strokeColor=#000000;shadow=0;comic=0;textOpacity=0;fontColor=none;labelBackgroundColor=none;noLabel=1;entryX=0.5;entryY=1;entryDx=0;entryDy=0;" parent="1" source="gkqPeHBAmK1bLLE0qPdu-12" target="_s8e9NvMkZ89bHvfG3n6-1" edge="1">
          <mxGeometry x="-0.0476" width="160" relative="1" as="geometry">
            <mxPoint x="1090" y="1430" as="sourcePoint" />
            <mxPoint x="1120" y="1302" as="targetPoint" />
            <mxPoint as="offset" />
          </mxGeometry>
        </mxCell>
        <mxCell id="gkqPeHBAmK1bLLE0qPdu-15" value="&lt;p style=&quot;margin: 0px ; margin-top: 4px ; text-align: center&quot;&gt;&lt;i&gt;&amp;lt;&amp;lt;Interface&amp;gt;&amp;gt;&lt;/i&gt;&lt;br&gt;&lt;b&gt;UserInput&lt;/b&gt;&lt;/p&gt;&lt;hr size=&quot;1&quot;&gt;&lt;p style=&quot;margin: 0px ; margin-left: 4px&quot;&gt;&lt;br&gt;&lt;/p&gt;&lt;hr size=&quot;1&quot;&gt;&lt;p style=&quot;margin: 0px ; margin-left: 4px&quot;&gt;+ SetNewStateIfNecessary(): void&lt;/p&gt;" style="verticalAlign=top;align=left;overflow=fill;fontSize=12;fontFamily=Helvetica;html=1;" parent="1" vertex="1">
          <mxGeometry x="980" y="970" width="190" height="110" as="geometry" />
        </mxCell>
        <mxCell id="gkqPeHBAmK1bLLE0qPdu-17" value="" style="endArrow=block;dashed=1;endFill=0;endSize=12;html=1;exitX=0.5;exitY=0;exitDx=0;exitDy=0;entryX=0.25;entryY=1;entryDx=0;entryDy=0;" parent="1" source="p0SsCodFUb69BNhrjL_O-2" target="gkqPeHBAmK1bLLE0qPdu-15" edge="1">
          <mxGeometry width="160" relative="1" as="geometry">
            <mxPoint x="790" y="350" as="sourcePoint" />
            <mxPoint x="950" y="350" as="targetPoint" />
          </mxGeometry>
        </mxCell>
        <mxCell id="gkqPeHBAmK1bLLE0qPdu-18" value="" style="endArrow=block;dashed=1;endFill=0;endSize=12;html=1;exitX=0.5;exitY=0;exitDx=0;exitDy=0;entryX=0.537;entryY=1;entryDx=0;entryDy=0;entryPerimeter=0;" parent="1" source="_s8e9NvMkZ89bHvfG3n6-1" target="gkqPeHBAmK1bLLE0qPdu-15" edge="1">
          <mxGeometry width="160" relative="1" as="geometry">
            <mxPoint x="1110" y="380" as="sourcePoint" />
            <mxPoint x="1270" y="380" as="targetPoint" />
          </mxGeometry>
        </mxCell>
        <mxCell id="gkqPeHBAmK1bLLE0qPdu-19" value="" style="endArrow=block;dashed=1;endFill=0;endSize=12;html=1;exitX=0.5;exitY=0;exitDx=0;exitDy=0;entryX=0.75;entryY=1;entryDx=0;entryDy=0;" parent="1" source="gkqPeHBAmK1bLLE0qPdu-8" target="gkqPeHBAmK1bLLE0qPdu-15" edge="1">
          <mxGeometry width="160" relative="1" as="geometry">
            <mxPoint x="1440" y="380" as="sourcePoint" />
            <mxPoint x="1600" y="380" as="targetPoint" />
          </mxGeometry>
        </mxCell>
        <mxCell id="gkqPeHBAmK1bLLE0qPdu-20" value="&lt;p style=&quot;margin: 0px ; margin-top: 4px ; text-align: center&quot;&gt;&lt;i&gt;&lt;b&gt;ToggledAndFadedUserInput&lt;/b&gt;&lt;/i&gt;&lt;/p&gt;&lt;hr size=&quot;1&quot;&gt;&lt;p style=&quot;margin: 0px ; margin-left: 4px&quot;&gt;+ KeyUpEvent: delegate void&lt;/p&gt;&lt;p style=&quot;margin: 0px ; margin-left: 4px&quot;&gt;+ EmitKeyUpEvent: event KeyUpEvent&lt;/p&gt;&lt;p style=&quot;margin: 0px ; margin-left: 4px&quot;&gt;+ KeyDownEvent: delegate void&lt;br&gt;&lt;/p&gt;&lt;p style=&quot;margin: 0px ; margin-left: 4px&quot;&gt;+ EmitKeyDownEvent: event KeyDownEvent&lt;/p&gt;&lt;p style=&quot;margin: 0px ; margin-left: 4px&quot;&gt;+ isPressed: boolean&lt;/p&gt;&lt;p style=&quot;margin: 0px ; margin-left: 4px&quot;&gt;+ currentInputValue: float&lt;/p&gt;&lt;p style=&quot;margin: 0px ; margin-left: 4px&quot;&gt;+ toggeledUserInput: ToggeledUserInput&lt;/p&gt;&lt;p style=&quot;margin: 0px ; margin-left: 4px&quot;&gt;+ fadedUserInput: FadedUserInput&lt;br&gt;&lt;/p&gt;&lt;hr size=&quot;1&quot;&gt;&lt;p style=&quot;margin: 0px ; margin-left: 4px&quot;&gt;+ SetNewStateIfNecessary(): void&lt;br&gt;&lt;/p&gt;" style="verticalAlign=top;align=left;overflow=fill;fontSize=12;fontFamily=Helvetica;html=1;" parent="1" vertex="1">
          <mxGeometry x="390" y="1165" width="260" height="215" as="geometry" />
        </mxCell>
        <mxCell id="gkqPeHBAmK1bLLE0qPdu-21" value="Extends" style="endArrow=block;endSize=16;endFill=0;entryX=0.5;entryY=1;entryDx=0;entryDy=0;exitX=0.5;exitY=0;exitDx=0;exitDy=0;strokeColor=#000000;shadow=0;comic=0;textOpacity=0;fontColor=none;labelBackgroundColor=none;noLabel=1;" parent="1" source="gkqPeHBAmK1bLLE0qPdu-11" target="gkqPeHBAmK1bLLE0qPdu-20" edge="1">
          <mxGeometry x="-0.0476" width="160" relative="1" as="geometry">
            <mxPoint x="735" y="1440" as="sourcePoint" />
            <mxPoint x="791" y="1335.96" as="targetPoint" />
            <mxPoint as="offset" />
          </mxGeometry>
        </mxCell>
        <mxCell id="gkqPeHBAmK1bLLE0qPdu-22" value="" style="endArrow=block;dashed=1;endFill=0;endSize=12;html=1;exitX=0.5;exitY=0;exitDx=0;exitDy=0;" parent="1" source="gkqPeHBAmK1bLLE0qPdu-20" target="gkqPeHBAmK1bLLE0qPdu-15" edge="1">
          <mxGeometry width="160" relative="1" as="geometry">
            <mxPoint x="890" y="415" as="sourcePoint" />
            <mxPoint x="1097.5" y="330" as="targetPoint" />
          </mxGeometry>
        </mxCell>
        <mxCell id="YY2gHRtdCYsPqJjgCvtX-1" value="" style="endArrow=diamondThin;endFill=1;endSize=24;html=1;" parent="1" source="IexDdL5BKOaNLtybtklX-4" target="IexDdL5BKOaNLtybtklX-9" edge="1">
          <mxGeometry width="160" relative="1" as="geometry">
            <mxPoint x="350" y="460" as="sourcePoint" />
            <mxPoint x="390" y="230" as="targetPoint" />
          </mxGeometry>
        </mxCell>
        <mxCell id="YY2gHRtdCYsPqJjgCvtX-2" value="&lt;p style=&quot;margin: 0px ; margin-top: 4px ; text-align: center&quot;&gt;&lt;b&gt;SceneManager&lt;/b&gt;&lt;/p&gt;&lt;hr size=&quot;1&quot;&gt;&lt;br&gt;&lt;hr size=&quot;1&quot;&gt;&lt;p style=&quot;margin: 0px ; margin-left: 4px&quot;&gt;+ LoadScene(SceneId)&lt;br&gt;&lt;/p&gt;" style="verticalAlign=top;align=left;overflow=fill;fontSize=12;fontFamily=Helvetica;html=1;" parent="1" vertex="1">
          <mxGeometry x="850" y="1650" width="160" height="100" as="geometry" />
        </mxCell>
        <mxCell id="YY2gHRtdCYsPqJjgCvtX-3" value="&lt;p style=&quot;margin: 0px ; margin-top: 4px ; text-align: center&quot;&gt;&lt;b&gt;LoadSceneUserInput&lt;/b&gt;&lt;/p&gt;&lt;hr size=&quot;1&quot;&gt;&lt;br&gt;&lt;hr size=&quot;1&quot;&gt;&lt;p style=&quot;margin: 0px ; margin-left: 4px&quot;&gt;+ LoadScene(SceneId)&lt;br&gt;&lt;/p&gt;" style="verticalAlign=top;align=left;overflow=fill;fontSize=12;fontFamily=Helvetica;html=1;" parent="1" vertex="1">
          <mxGeometry x="1260" y="1620" width="160" height="100" as="geometry" />
        </mxCell>
        <mxCell id="YY2gHRtdCYsPqJjgCvtX-5" value="Extends" style="endArrow=block;endSize=16;endFill=0;entryX=0.114;entryY=1.02;entryDx=0;entryDy=0;exitX=0.5;exitY=0;exitDx=0;exitDy=0;strokeColor=#000000;shadow=0;comic=0;textOpacity=0;fontColor=none;labelBackgroundColor=none;noLabel=1;entryPerimeter=0;" parent="1" source="YY2gHRtdCYsPqJjgCvtX-3" target="gkqPeHBAmK1bLLE0qPdu-8" edge="1">
          <mxGeometry x="-0.0476" width="160" relative="1" as="geometry">
            <mxPoint x="650" y="1660" as="sourcePoint" />
            <mxPoint x="650" y="1470" as="targetPoint" />
            <mxPoint as="offset" />
          </mxGeometry>
        </mxCell>
        <mxCell id="YY2gHRtdCYsPqJjgCvtX-6" value="&lt;p style=&quot;margin: 0px ; margin-top: 4px ; text-align: center&quot;&gt;&lt;b&gt;MqttAdapter&lt;/b&gt;&lt;br&gt;&lt;/p&gt;&lt;hr size=&quot;1&quot;&gt;&lt;br&gt;&lt;hr size=&quot;1&quot;&gt;&lt;p style=&quot;margin: 0px ; margin-left: 4px&quot;&gt;+ PollMessages()&lt;/p&gt;&lt;p style=&quot;margin: 0px ; margin-left: 4px&quot;&gt;+ SendMessage()&lt;br&gt;&lt;/p&gt;" style="verticalAlign=top;align=left;overflow=fill;fontSize=12;fontFamily=Helvetica;html=1;" parent="1" vertex="1">
          <mxGeometry x="40" y="2120" width="160" height="100" as="geometry" />
        </mxCell>
        <mxCell id="YY2gHRtdCYsPqJjgCvtX-7" value="&lt;p style=&quot;margin: 0px ; margin-top: 4px ; text-align: center&quot;&gt;&lt;b&gt;MqttFacade&lt;/b&gt;&lt;br&gt;&lt;/p&gt;&lt;hr size=&quot;1&quot;&gt;&lt;br&gt;&lt;hr size=&quot;1&quot;&gt;&lt;p style=&quot;margin: 0px ; margin-left: 4px&quot;&gt;+ UpdateMqttInputs(MqttAdapter): void&lt;br&gt;&lt;/p&gt;&lt;p style=&quot;margin: 0px ; margin-left: 4px&quot;&gt;+ SendMessage(MqttAdapter): void&lt;br&gt;&lt;/p&gt;" style="verticalAlign=top;align=left;overflow=fill;fontSize=12;fontFamily=Helvetica;html=1;" parent="1" vertex="1">
          <mxGeometry x="450" y="1915" width="240" height="100" as="geometry" />
        </mxCell>
        <mxCell id="YY2gHRtdCYsPqJjgCvtX-8" value="&lt;p style=&quot;margin: 0px ; margin-top: 4px ; text-align: center&quot;&gt;&lt;b&gt;MqttInputsUpdater&lt;/b&gt;&lt;br&gt;&lt;/p&gt;&lt;hr size=&quot;1&quot;&gt;&lt;br&gt;&lt;hr size=&quot;1&quot;&gt;&lt;p style=&quot;margin: 0px ; margin-left: 4px&quot;&gt;+ PollMessages(MqttAdapter)&lt;/p&gt;" style="verticalAlign=top;align=left;overflow=fill;fontSize=12;fontFamily=Helvetica;html=1;" parent="1" vertex="1">
          <mxGeometry x="600" y="2100" width="170" height="100" as="geometry" />
        </mxCell>
        <mxCell id="YY2gHRtdCYsPqJjgCvtX-10" value="&lt;p style=&quot;margin: 0px ; margin-top: 4px ; text-align: center&quot;&gt;&lt;i&gt;&amp;lt;&amp;lt;Interface&amp;gt;&amp;gt;&lt;/i&gt;&lt;b&gt;&lt;br&gt;&lt;/b&gt;&lt;/p&gt;&lt;p style=&quot;margin: 0px ; margin-top: 4px ; text-align: center&quot;&gt;&lt;b&gt;MqttAdapter&lt;/b&gt;&lt;br&gt;&lt;/p&gt;&lt;hr size=&quot;1&quot;&gt;&lt;br&gt;&lt;hr size=&quot;1&quot;&gt;&lt;p style=&quot;margin: 0px ; margin-left: 4px&quot;&gt;+ PollMessages()&lt;/p&gt;&lt;p style=&quot;margin: 0px ; margin-left: 4px&quot;&gt;+ SendMessage()&lt;br&gt;&lt;/p&gt;" style="verticalAlign=top;align=left;overflow=fill;fontSize=12;fontFamily=Helvetica;html=1;" parent="1" vertex="1">
          <mxGeometry x="40" y="1915" width="160" height="120" as="geometry" />
        </mxCell>
        <mxCell id="YY2gHRtdCYsPqJjgCvtX-11" value="" style="endArrow=block;dashed=1;endFill=0;endSize=12;html=1;" parent="1" source="YY2gHRtdCYsPqJjgCvtX-6" target="YY2gHRtdCYsPqJjgCvtX-10" edge="1">
          <mxGeometry width="160" relative="1" as="geometry">
            <mxPoint x="320" y="1984.02" as="sourcePoint" />
            <mxPoint x="286" y="1925" as="targetPoint" />
          </mxGeometry>
        </mxCell>
        <mxCell id="YY2gHRtdCYsPqJjgCvtX-12" value="&lt;p style=&quot;margin: 0px ; margin-top: 4px ; text-align: center&quot;&gt;&lt;b&gt;MqttSender&lt;/b&gt;&lt;br&gt;&lt;/p&gt;&lt;hr size=&quot;1&quot;&gt;&lt;div&gt;&amp;nbsp;- messages: MessageCollection &lt;br&gt;&lt;/div&gt;&lt;hr size=&quot;1&quot;&gt;&lt;p style=&quot;margin: 0px ; margin-left: 4px&quot;&gt;+ SendMessage()&lt;br&gt;&lt;/p&gt;" style="verticalAlign=top;align=left;overflow=fill;fontSize=12;fontFamily=Helvetica;html=1;" parent="1" vertex="1">
          <mxGeometry x="350" y="2100" width="190" height="100" as="geometry" />
        </mxCell>
        <mxCell id="YY2gHRtdCYsPqJjgCvtX-19" value="" style="endArrow=diamondThin;endFill=1;endSize=24;html=1;" parent="1" source="YY2gHRtdCYsPqJjgCvtX-12" target="YY2gHRtdCYsPqJjgCvtX-7" edge="1">
          <mxGeometry width="160" relative="1" as="geometry">
            <mxPoint y="2115" as="sourcePoint" />
            <mxPoint x="493.75" y="1905" as="targetPoint" />
          </mxGeometry>
        </mxCell>
        <mxCell id="YY2gHRtdCYsPqJjgCvtX-20" value="" style="endArrow=diamondThin;endFill=1;endSize=24;html=1;" parent="1" source="YY2gHRtdCYsPqJjgCvtX-8" target="YY2gHRtdCYsPqJjgCvtX-7" edge="1">
          <mxGeometry width="160" relative="1" as="geometry">
            <mxPoint x="620" y="2145" as="sourcePoint" />
            <mxPoint x="601.25" y="1905" as="targetPoint" />
          </mxGeometry>
        </mxCell>
        <mxCell id="YY2gHRtdCYsPqJjgCvtX-21" value="" style="endArrow=diamondThin;endFill=1;endSize=24;html=1;" parent="1" source="YY2gHRtdCYsPqJjgCvtX-6" target="YY2gHRtdCYsPqJjgCvtX-7" edge="1">
          <mxGeometry width="160" relative="1" as="geometry">
            <mxPoint x="290" y="1965" as="sourcePoint" />
            <mxPoint x="440" y="1880" as="targetPoint" />
          </mxGeometry>
        </mxCell>
        <mxCell id="YY2gHRtdCYsPqJjgCvtX-22" value="&lt;p style=&quot;margin: 0px ; margin-top: 4px ; text-align: center&quot;&gt;&lt;b&gt;UserOutputHandler&lt;/b&gt;&lt;/p&gt;&lt;hr size=&quot;1&quot;&gt;&lt;br&gt;&lt;hr size=&quot;1&quot;&gt;&lt;p style=&quot;margin: 0px ; margin-left: 4px&quot;&gt;+ LoadScene(SceneId)&lt;br&gt;&lt;/p&gt;" style="verticalAlign=top;align=left;overflow=fill;fontSize=12;fontFamily=Helvetica;html=1;" parent="1" vertex="1">
          <mxGeometry x="780" y="1840" width="160" height="100" as="geometry" />
        </mxCell>
        <mxCell id="Hk9LADAd_C7SH6eBaAao-1" value="&lt;p style=&quot;margin: 0px ; margin-top: 4px ; text-align: center&quot;&gt;&lt;b&gt;DroneKeyUserInput&lt;/b&gt;&lt;br&gt;&lt;/p&gt;&lt;hr size=&quot;1&quot;&gt;&lt;p style=&quot;margin: 0px ; margin-left: 4px&quot;&gt;&lt;br&gt;&lt;/p&gt;&lt;hr size=&quot;1&quot;&gt;&lt;p style=&quot;margin: 0px ; margin-left: 4px&quot;&gt;&lt;br&gt;&lt;/p&gt;" style="verticalAlign=top;align=left;overflow=fill;fontSize=12;fontFamily=Helvetica;html=1;" parent="1" vertex="1">
          <mxGeometry x="740" y="1520" width="160" height="80" as="geometry" />
        </mxCell>
        <mxCell id="Hk9LADAd_C7SH6eBaAao-2" value="Extends" style="endArrow=block;endSize=16;endFill=0;entryX=0.35;entryY=1.006;entryDx=0;entryDy=0;exitX=0.5;exitY=0;exitDx=0;exitDy=0;strokeColor=#000000;shadow=0;comic=0;textOpacity=0;fontColor=none;labelBackgroundColor=none;noLabel=1;entryPerimeter=0;" parent="1" source="Hk9LADAd_C7SH6eBaAao-1" edge="1">
          <mxGeometry x="-0.0476" width="160" relative="1" as="geometry">
            <mxPoint x="809" y="1389.04" as="sourcePoint" />
            <mxPoint x="840" y="1325" as="targetPoint" />
            <mxPoint as="offset" />
          </mxGeometry>
        </mxCell>
        <mxCell id="Bzb-3gxFvcCEt1NOHRP6-1" value="&lt;p style=&quot;margin: 0px ; margin-top: 4px ; text-align: center&quot;&gt;&lt;b&gt;UserInputsFacade&lt;/b&gt;&lt;/p&gt;&lt;hr size=&quot;1&quot;&gt;&lt;p style=&quot;margin: 0px ; margin-left: 4px&quot;&gt;+ FourInFourUserInput: ToggledAndFadedUserInput&lt;br&gt;&lt;/p&gt;&lt;p style=&quot;margin: 0px ; margin-left: 4px&quot;&gt;+ TwoInFouruserInput: ToggledAndFadedUserInput&lt;/p&gt;&lt;p style=&quot;margin: 0px ; margin-left: 4px&quot;&gt;+ EightInFourUserInput: ToggledAndFadedUserInput&lt;/p&gt;&lt;p style=&quot;margin: 0px ; margin-left: 4px&quot;&gt;+ SixteenInFourUserInput: ToggledAndFadedUserInput&lt;/p&gt;&lt;p style=&quot;margin: 0px ; margin-left: 4px&quot;&gt;&lt;br&gt;&lt;/p&gt;&lt;p style=&quot;margin: 0px ; margin-left: 4px&quot;&gt;+ &lt;br&gt;&lt;/p&gt;&lt;hr size=&quot;1&quot;&gt;" style="verticalAlign=top;align=left;overflow=fill;fontSize=12;fontFamily=Helvetica;html=1;" vertex="1" parent="1">
          <mxGeometry x="450" y="687.5" width="330" height="202.5" as="geometry" />
        </mxCell>
        <mxCell id="Bzb-3gxFvcCEt1NOHRP6-2" value="" style="endArrow=diamondThin;endFill=0;endSize=24;html=1;" edge="1" parent="1" source="IexDdL5BKOaNLtybtklX-15" target="IexDdL5BKOaNLtybtklX-9">
          <mxGeometry width="160" relative="1" as="geometry">
            <mxPoint x="440" y="440" as="sourcePoint" />
            <mxPoint x="570" y="150" as="targetPoint" />
          </mxGeometry>
        </mxCell>
        <mxCell id="Bzb-3gxFvcCEt1NOHRP6-3" value="" style="endArrow=diamondThin;endFill=0;endSize=24;html=1;fontColor=default;" edge="1" parent="1" source="Bzb-3gxFvcCEt1NOHRP6-1" target="_s8e9NvMkZ89bHvfG3n6-2">
          <mxGeometry width="160" relative="1" as="geometry">
            <mxPoint x="440" y="720" as="sourcePoint" />
            <mxPoint x="355" y="720" as="targetPoint" />
          </mxGeometry>
        </mxCell>
        <mxCell id="Bzb-3gxFvcCEt1NOHRP6-6" value="" style="endArrow=diamondThin;endFill=0;endSize=24;html=1;fontColor=default;" edge="1" parent="1" source="Bzb-3gxFvcCEt1NOHRP6-1" target="Bzb-3gxFvcCEt1NOHRP6-12">
          <mxGeometry width="160" relative="1" as="geometry">
            <mxPoint x="990" y="710" as="sourcePoint" />
            <mxPoint x="1070" y="550" as="targetPoint" />
          </mxGeometry>
        </mxCell>
        <mxCell id="Bzb-3gxFvcCEt1NOHRP6-7" value="" style="endArrow=diamondThin;endFill=0;endSize=24;html=1;fontColor=default;" edge="1" parent="1" source="IexDdL5BKOaNLtybtklX-15" target="Bzb-3gxFvcCEt1NOHRP6-12">
          <mxGeometry width="160" relative="1" as="geometry">
            <mxPoint x="720" y="757.5" as="sourcePoint" />
            <mxPoint x="1070" y="490" as="targetPoint" />
          </mxGeometry>
        </mxCell>
        <mxCell id="Bzb-3gxFvcCEt1NOHRP6-12" value="&lt;p style=&quot;margin: 0px ; margin-top: 4px ; text-align: center&quot;&gt;&lt;b&gt;SceneImplementation&lt;/b&gt;&lt;/p&gt;&lt;hr size=&quot;1&quot;&gt;&lt;p style=&quot;margin: 0px ; margin-left: 4px&quot;&gt;+ field: Type&lt;/p&gt;&lt;hr size=&quot;1&quot;&gt;&lt;p style=&quot;margin: 0px ; margin-left: 4px&quot;&gt;+ RegisterMusicValues(): void&lt;/p&gt;&lt;p style=&quot;margin: 0px ; margin-left: 4px&quot;&gt;+ RegisterUserInputs(): void&lt;br&gt;&lt;/p&gt;" style="verticalAlign=top;align=left;overflow=fill;fontSize=12;fontFamily=Helvetica;html=1;fontColor=default;strokeColor=default;" vertex="1" parent="1">
          <mxGeometry x="1000" y="530" width="270" height="140" as="geometry" />
        </mxCell>
        <mxCell id="Bzb-3gxFvcCEt1NOHRP6-13" value="" style="endArrow=diamondThin;endFill=0;endSize=24;html=1;fontColor=default;" edge="1" parent="1" source="Bzb-3gxFvcCEt1NOHRP6-1" target="IexDdL5BKOaNLtybtklX-9">
          <mxGeometry width="160" relative="1" as="geometry">
            <mxPoint x="570" y="484.6555813953488" as="sourcePoint" />
            <mxPoint x="730" y="440.0044186046513" as="targetPoint" />
          </mxGeometry>
        </mxCell>
        <mxCell id="Bzb-3gxFvcCEt1NOHRP6-14" value="&lt;p style=&quot;margin: 0px ; margin-top: 4px ; text-align: center&quot;&gt;&lt;i&gt;&amp;lt;&amp;lt;Interface&amp;gt;&amp;gt;&lt;/i&gt;&lt;br&gt;&lt;b&gt;UserInputsConsumer&lt;/b&gt;&lt;/p&gt;&lt;hr size=&quot;1&quot;&gt;&lt;p style=&quot;margin: 0px ; margin-left: 4px&quot;&gt;+ &lt;br&gt;&lt;/p&gt;&lt;hr size=&quot;1&quot;&gt;&lt;p style=&quot;margin: 0px ; margin-left: 4px&quot;&gt;+ RegisterUserInputs(): void&lt;br&gt;&lt;/p&gt;" style="verticalAlign=top;align=left;overflow=fill;fontSize=12;fontFamily=Helvetica;html=1;fontColor=default;strokeColor=default;" vertex="1" parent="1">
          <mxGeometry x="810" y="40" width="190" height="140" as="geometry" />
        </mxCell>
        <mxCell id="Bzb-3gxFvcCEt1NOHRP6-15" value="" style="endArrow=block;dashed=1;endFill=0;endSize=12;html=1;" edge="1" parent="1" source="Bzb-3gxFvcCEt1NOHRP6-12" target="Bzb-3gxFvcCEt1NOHRP6-14">
          <mxGeometry width="160" relative="1" as="geometry">
            <mxPoint x="1050.0003448275863" y="400" as="sourcePoint" />
            <mxPoint x="1060.8624137931035" y="190" as="targetPoint" />
          </mxGeometry>
        </mxCell>
        <mxCell id="Bzb-3gxFvcCEt1NOHRP6-16" value="" style="endArrow=block;dashed=1;endFill=0;endSize=12;html=1;" edge="1" parent="1" source="IexDdL5BKOaNLtybtklX-9" target="Bzb-3gxFvcCEt1NOHRP6-14">
          <mxGeometry width="160" relative="1" as="geometry">
            <mxPoint x="669.9978260869565" y="230" as="sourcePoint" />
            <mxPoint x="621.3021739130435" y="-90" as="targetPoint" />
          </mxGeometry>
        </mxCell>
      </root>
    </mxGraphModel>
  </diagram>
</mxfile>
